<svg viewBox="0 0 64 64" version="1.1" width="20" height="20" xmlns="http://www.w3.org/2000/svg" xmlns:xlink="http://www.w3.org/1999/xlink" fill="#000000">
  <path d="M53.979,9.143H50.011c-0.083,0-0.156,0.028-0.233,0.047V5.023C49.778,2.253,47.473,0,44.64,0H10.217C7.384,0,5.079,2.253,5.079,5.023v46.843c0,2.77,2.305,5.023,5.138,5.023h6.037v2.268c0,2.879,2.216,5.062,4.941,5.062h32.784c2.725,0,4.941-2.172,4.941-5.062V13.986c0-2.672-2.217-4.855-4.941-4.855z M7.111,51.866V5.023c0-1.649,1.394-2.991,3.106-2.991h34.423c1.712,0,3.106,1.342,3.106,2.991v46.843c0,1.648-1.394,2.991-3.106,2.991H10.217C8.505,54.857,7.111,53.514,7.111,51.866z M56.889,59.157c0,1.551-1.306,2.812-2.91,2.812h-32.784c-1.604-0.001-2.91-1.261-2.91-2.812v-2.268h26.354c2.833,0,5.138-2.253,5.138-5.023V11.128c0.077,0.019,0.15,0.047,0.233,0.047h3.968c1.604,0,2.91,1.261,2.91,2.812V59.157z" fill="#000000"/>
  <path d="M38.603,13.206H16.254c-0.562,0-1.016,0.454-1.016,1.016s0.454,1.016,1.016,1.016h22.349c0.562,0,1.016-0.454,1.016-1.016S39.165,13.206,38.603,13.206z" fill="#000000"/>
  <path d="M38.603,21.333H16.254c-0.562,0-1.016,0.454-1.016,1.016s0.454,1.016,1.016,1.016h22.349c0.562,0,1.016-0.454,1.016-1.016S39.165,21.333,38.603,21.333z" fill="#000000"/>
  <path d="M38.603,29.46H16.254c-0.562,0-1.016,0.454-1.016,1.016s0.454,1.016,1.016,1.016h22.349c0.562,0,1.016-0.454,1.016-1.016S39.165,29.46,38.603,29.46z" fill="#000000"/>
  <path d="M28.444,37.587H16.254c-0.562,0-1.016,0.454-1.016,1.016s0.454,1.016,1.016,1.016h12.19c0.562,0,1.016-0.454,1.016-1.016S29.005,37.587,28.444,37.587z" fill="#000000"/>
</svg>
